<svg xmlns="http://www.w3.org/2000/svg" viewBox="0 0 214.62 45.4"><path fill="#121212" d="m75.04 30.48 1.03 3c-.7.39-1.45.68-2.23.86-1.09.27-2.22.4-3.34.38-2.29.16-4.53-.66-6.18-2.26a8.971 8.971 0 0 1-2.12-6.41c-.02-1.26.2-2.51.65-3.68.4-1.03 1-1.96 1.78-2.74.76-.75 1.68-1.33 2.69-1.69 1.09-.39 2.23-.59 3.39-.58.64 0 1.29.05 1.92.16.51.09 1.02.21 1.51.36.37.11.73.25 1.08.42.29.14.5.26.62.34l-1.08 3.02c-.57-.3-1.17-.53-1.79-.7-.76-.2-1.54-.29-2.32-.28-.58 0-1.15.1-1.69.29-.55.19-1.05.51-1.46.92-.45.47-.8 1.03-1.02 1.64-.27.78-.4 1.61-.38 2.44 0 .72.08 1.45.25 2.15.15.62.43 1.21.82 1.72.39.49.9.88 1.48 1.14.7.3 1.45.44 2.21.42.49 0 .98-.03 1.46-.1.39-.05.77-.13 1.15-.22.3-.08.6-.18.89-.3.26-.11.49-.22.7-.31Zm17.47-1.06c.56 1.52 1.15 3.18 1.77 4.97h-4.01c-.18-.58-.37-1.17-.59-1.78-.22-.61-.43-1.22-.64-1.82h-6.48c-.21.61-.42 1.22-.64 1.82-.22.61-.41 1.2-.59 1.78h-3.89c.62-1.79 1.22-3.45 1.78-4.97.56-1.52 1.11-2.95 1.64-4.3.53-1.34 1.06-2.62 1.58-3.83s1.06-2.39 1.62-3.54h3.58a128.301 128.301 0 0 1 3.21 7.37c.53 1.34 1.08 2.78 1.64 4.3Zm-4.35-1.61c-.26-.72-.5-1.41-.74-2.06s-.47-1.26-.68-1.8-.4-1.02-.56-1.44c-.16-.42-.29-.74-.38-.98-.08.24-.2.57-.36.98s-.34.9-.55 1.44-.44 1.14-.68 1.8c-.25.66-.5 1.34-.76 2.06h4.73Zm91.53 6.58h3.74V17.76h-3.74v16.63Zm19.01-3.61c-.29.12-.58.22-.89.3a10.136 10.136 0 0 1-2.61.33c-.76.02-1.51-.12-2.21-.42-.58-.26-1.08-.65-1.48-1.14-.39-.51-.67-1.09-.82-1.72-.17-.7-.26-1.42-.25-2.15-.02-.83.11-1.66.38-2.45.22-.61.57-1.17 1.02-1.64.41-.42.91-.73 1.46-.92.54-.19 1.12-.29 1.69-.29.78-.01 1.56.09 2.32.29.62.17 1.22.4 1.79.7l1.08-3.02c-.13-.08-.34-.19-.62-.34-.35-.17-.71-.31-1.08-.42-.5-.15-1-.27-1.51-.36-.63-.11-1.28-.16-1.92-.16-1.15-.01-2.3.18-3.38.58-1.01.36-1.92.94-2.69 1.69-.78.78-1.38 1.71-1.78 2.74a9.889 9.889 0 0 0-.65 3.68c-.15 2.33.61 4.63 2.12 6.41a8.133 8.133 0 0 0 6.18 2.26c1.13.01 2.25-.12 3.34-.39a8.88 8.88 0 0 0 2.23-.86l-1.03-3c-.21.1-.44.2-.7.31Zm-26.2-9.92c-.38 1.11-.76 2.22-1.15 3.32-.39 1.1-.78 2.16-1.15 3.17-.38 1.01-.72 1.88-1.02 2.62-.32-.74-.66-1.61-1.03-2.62s-.75-2.06-1.14-3.17c-.39-1.1-.78-2.21-1.16-3.32-.38-1.11-.72-2.15-1.04-3.11h-4.13c.35 1.06.77 2.26 1.26 3.6.49 1.34 1.02 2.75 1.6 4.22.58 1.47 1.18 2.96 1.82 4.46.64 1.5 1.29 2.95 1.94 4.34h3.6c.66-1.39 1.3-2.84 1.94-4.34.64-1.5 1.25-2.99 1.82-4.46.58-1.47 1.1-2.88 1.58-4.22.48-1.34.9-2.54 1.27-3.6h-3.98c-.32.96-.67 2-1.04 3.11Zm-63.39 11.66c.34.63.65 1.25.93 1.86h-4.2l-.92-1.66a43.961 43.961 0 0 0-1.93-3.13c-.32-.47-.64-.9-.96-1.28h-1.85v6.07h-3.74V18c.84-.16 1.68-.27 2.53-.34.87-.06 1.65-.1 2.34-.1 2-.12 3.99.34 5.74 1.33 1.35.93 2.11 2.5 1.99 4.14.05 1.01-.23 2.01-.8 2.84-.6.77-1.4 1.37-2.32 1.72.33.42.69.89 1.06 1.43s.73 1.1 1.09 1.68c.36.58.71 1.19 1.04 1.82ZM105.17 23c.06-.71-.3-1.39-.92-1.74a5.8 5.8 0 0 0-2.72-.52c-.27 0-.52 0-.73.02l-.61.05v4.51h1.06c1.04.07 2.07-.11 3.02-.53.62-.38.98-1.08.91-1.8Zm101.4 8.23v-4.01h6.65v-3.07h-6.65v-3.26h7.49v-3.14h-11.23v16.63h11.78v-3.14h-8.04Zm-47.18 1.28c.34.63.65 1.25.93 1.86h-4.2l-.92-1.66a43.961 43.961 0 0 0-1.93-3.13c-.32-.47-.64-.9-.96-1.28h-1.85v6.07h-3.74V18c.84-.16 1.68-.27 2.53-.34.87-.06 1.65-.1 2.34-.1 2-.12 3.99.34 5.74 1.33 1.35.93 2.11 2.5 1.99 4.14.05 1.01-.23 2.01-.8 2.84-.6.77-1.4 1.37-2.32 1.72.33.42.69.89 1.06 1.43s.73 1.1 1.09 1.68c.36.58.71 1.19 1.04 1.82Zm-3.94-9.52c.06-.71-.3-1.39-.92-1.74a5.8 5.8 0 0 0-2.72-.52c-.27 0-.52 0-.73.02l-.61.05v4.51h1.06c1.04.07 2.07-.11 3.02-.53.62-.38.98-1.08.91-1.8Zm-19.54 4.22h6.65v-3.07h-6.65v-3.26h7.49v-3.14h-11.23v16.63h11.78v-3.14h-8.04v-4.01Zm-7.89-.92c-.47-.45-1.01-.82-1.6-1.09-.64-.31-1.39-.63-2.26-.95-.42-.15-.8-.29-1.14-.42-.32-.12-.62-.28-.91-.46-.24-.15-.45-.34-.61-.56-.15-.23-.23-.5-.22-.77-.03-.46.2-.9.59-1.14.6-.29 1.27-.42 1.93-.37.69-.01 1.39.08 2.05.28.53.17 1.05.38 1.55.64l1.08-2.95c-.64-.33-1.32-.6-2.02-.79-.94-.26-1.92-.38-2.9-.36-.86-.01-1.72.11-2.54.35-.7.21-1.35.54-1.92 1-.52.42-.94.96-1.22 1.57a4.94 4.94 0 0 0-.43 2.08c-.02.68.12 1.35.41 1.96.26.52.62.98 1.06 1.37.44.38.93.7 1.46.94.54.25 1.09.47 1.63.66.93.27 1.81.66 2.64 1.16.47.29.76.8.77 1.36 0 .24-.04.48-.12.7-.09.22-.24.41-.43.54-.25.17-.53.29-.83.36-.43.1-.87.14-1.31.13-.9.02-1.8-.09-2.68-.32-.64-.18-1.25-.42-1.84-.73l-1.06 2.98c.27.15.55.29.83.41.38.16.78.3 1.18.41.52.14 1.04.25 1.57.32.66.09 1.33.14 1.99.14a7.85 7.85 0 0 0 4.92-1.28c1.09-.87 1.7-2.22 1.63-3.61.02-.69-.09-1.38-.31-2.04-.2-.55-.53-1.06-.95-1.47Zm-86.53 16.1a2.65 2.65 0 0 1-2.05 2.84c-.98.22-2 .22-2.98 0a2.633 2.633 0 0 1-2.03-2.75c-.01-.8 0-1.6 0-2.4v-.39H11.75v2.73c.11 1.5-1.01 2.8-2.51 2.91h-.33c-.63.02-1.26 0-1.88-.06a2.59 2.59 0 0 1-2.28-2.23c-.04-.29-.05-.58-.05-.87 0-3.85-.02-7.7 0-11.54-.06-1.7.75-3.32 2.15-4.28a.99.99 0 0 1 .17-.11c.51-.2.89-.66.99-1.2.78-2.17 1.54-4.34 2.39-6.48a6.98 6.98 0 0 1 6.59-4.4c4.05 0 8.09.02 12.14 0 3.13.02 5.91 2 6.96 4.95.77 2.14 1.52 4.3 2.29 6.44.07.19.21.35.38.46 1.72.86 2.78 2.65 2.71 4.57.05 3.94.02 7.88.01 11.82Zm-27.61-9.8c0-1.17-.96-2.12-2.14-2.12a2.13 2.13 0 0 0 .01 4.26c1.17-.02 2.11-.97 2.12-2.14Zm0-7.09h18.41c-.04-.13-.07-.23-.1-.34-.49-1.37-.98-2.75-1.48-4.12-.21-.77-.94-1.28-1.73-1.22H17.21c-.81-.12-1.57.41-1.74 1.22l-1.46 4.09c-.04.11-.07.23-.12.37Zm22.66 7.09c0-1.17-.96-2.12-2.14-2.11s-2.12.96-2.11 2.14c0 1.17.96 2.12 2.14 2.11 1.17-.02 2.11-.97 2.12-2.14Zm5.73-27.66h1.32c.51 0 1.02 0 1.52-.02.19 0 .37-.07.53-.16l.12-.09c.49-.41.55-1.14.14-1.62A6.55 6.55 0 0 0 42.7.51a7.008 7.008 0 0 0-6.34.56c-.9.54-1.65 1.3-2.19 2.2a1.99 1.99 0 0 1-1.81.97H13.75c-.63.03-1.23-.27-1.58-.8l-.27-.39A6.8 6.8 0 0 0 6.06.02 6.68 6.68 0 0 0 .29 3.01c-.29.35-.37.85-.18 1.27.21.44.67.7 1.16.65.91-.01 1.82 0 2.73 0 1.02.03 1.87.77 2.05 1.78.18.95-.32 1.9-1.2 2.29-.39.14-.79.21-1.2.21-.81.03-1.62.01-2.43.01-.46-.04-.9.22-1.1.64-.18.42-.12.91.17 1.27.61.92 1.45 1.67 2.45 2.16a7.006 7.006 0 0 0 7.04-.18 6.47 6.47 0 0 0 2.31-2.28c.38-.63 1.08-.99 1.81-.95 6.09.02 12.18.02 18.28 0 .88-.05 1.71.4 2.16 1.16a6.599 6.599 0 0 0 5.79 3.08 6.71 6.71 0 0 0 5.73-2.93c.32-.36.41-.87.22-1.32-.22-.46-.72-.73-1.22-.66-.75 0-1.51.01-2.26 0-.3 0-.6-.02-.9-.08-1-.26-1.66-1.2-1.59-2.23.1-1.13 1.05-1.99 2.19-1.98Z"/></svg>