<svg xmlns="http://www.w3.org/2000/svg" width="214.624" height="45.396" viewBox="0 0 214.624 45.396"><g fill="#fff"><path d="M70.5 34.732a8.083 8.083 0 0 1-6.176-2.256 8.991 8.991 0 0 1-2.124-6.408 9.854 9.854 0 0 1 .648-3.684 7.938 7.938 0 0 1 1.776-2.736 7.426 7.426 0 0 1 2.688-1.692 9.7 9.7 0 0 1 3.388-.576 10.846 10.846 0 0 1 1.92.156 12.449 12.449 0 0 1 1.512.36 7.461 7.461 0 0 1 1.08.42q.432.216.624.336l-1.08 3.024a9.06 9.06 0 0 0-1.788-.7 8.532 8.532 0 0 0-2.32-.28 5.116 5.116 0 0 0-1.692.288 3.826 3.826 0 0 0-1.464.924 4.6 4.6 0 0 0-1.02 1.644 6.9 6.9 0 0 0-.384 2.444 8.738 8.738 0 0 0 .252 2.148 4.556 4.556 0 0 0 .816 1.716 3.917 3.917 0 0 0 1.476 1.136 5.253 5.253 0 0 0 2.208.42 10.061 10.061 0 0 0 1.464-.1 10.87 10.87 0 0 0 1.152-.22 6.049 6.049 0 0 0 .888-.3q.384-.168.7-.312l1.032 3a8.771 8.771 0 0 1-2.232.864 13.009 13.009 0 0 1-3.344.384Zm19.78-.336q-.264-.864-.588-1.776t-.636-1.824h-6.48q-.312.912-.636 1.824t-.588 1.776h-3.888q.936-2.688 1.776-4.968t1.644-4.3q.8-2.016 1.584-3.828t1.62-3.54h3.576q.816 1.728 1.608 3.54t1.6 3.828q.8 2.016 1.644 4.3t1.772 4.968Zm-4.488-12.864q-.12.36-.36.984t-.552 1.44q-.312.816-.684 1.8t-.756 2.064h4.728q-.384-1.08-.744-2.064t-.684-1.8q-.324-.816-.564-1.44t-.384-.984Zm15.528-3.96a10.308 10.308 0 0 1 5.736 1.332 4.629 4.629 0 0 1 1.992 4.14 4.679 4.679 0 0 1-.8 2.844 5.3 5.3 0 0 1-2.316 1.716q.5.624 1.056 1.428t1.092 1.68q.54.876 1.044 1.824t.932 1.86h-4.2l-.924-1.656q-.468-.84-.96-1.632t-.972-1.5q-.48-.708-.96-1.284h-1.848v6.072h-3.744V18.004a21.226 21.226 0 0 1 2.532-.336q1.308-.096 2.34-.096Zm.216 3.192q-.408 0-.732.024l-.612.048v4.512h1.056a6.377 6.377 0 0 0 3.024-.528 1.909 1.909 0 0 0 .912-1.8 1.83 1.83 0 0 0-.924-1.74 5.714 5.714 0 0 0-2.724-.516Zm21.216 10.776a5.4 5.4 0 0 0 1.308-.132 2.412 2.412 0 0 0 .828-.36 1.2 1.2 0 0 0 .432-.54 1.925 1.925 0 0 0 .12-.7 1.608 1.608 0 0 0-.768-1.356 10.974 10.974 0 0 0-2.64-1.156q-.816-.288-1.632-.66a6.015 6.015 0 0 1-1.464-.94 4.477 4.477 0 0 1-1.056-1.368 4.285 4.285 0 0 1-.408-1.956 4.844 4.844 0 0 1 .428-2.076 4.432 4.432 0 0 1 1.224-1.572 5.6 5.6 0 0 1 1.92-1 8.618 8.618 0 0 1 2.544-.348 10.359 10.359 0 0 1 2.9.36 10.377 10.377 0 0 1 2.016.792l-1.08 2.952a10.229 10.229 0 0 0-1.548-.636 6.7 6.7 0 0 0-2.052-.276 3.765 3.765 0 0 0-1.932.372 1.255 1.255 0 0 0-.588 1.14 1.317 1.317 0 0 0 .216.768 2.1 2.1 0 0 0 .612.564 5.384 5.384 0 0 0 .912.456q.516.2 1.14.42 1.3.48 2.256.948a6.025 6.025 0 0 1 1.6 1.092 3.955 3.955 0 0 1 .952 1.468 5.882 5.882 0 0 1 .308 2.04 4.332 4.332 0 0 1-1.628 3.612 7.876 7.876 0 0 1-4.92 1.284 13.631 13.631 0 0 1-1.992-.136 12.857 12.857 0 0 1-1.572-.32 9.017 9.017 0 0 1-1.176-.408 8.929 8.929 0 0 1-.828-.408l1.056-2.976a9.415 9.415 0 0 0 1.836.732 9.523 9.523 0 0 0 2.676.324Zm9.432 2.856V17.764h11.232v3.144h-7.488v3.264h6.648v3.072h-6.648v4.008h8.04v3.144ZM151.6 17.572a10.308 10.308 0 0 1 5.736 1.332 4.629 4.629 0 0 1 1.992 4.14 4.679 4.679 0 0 1-.8 2.844 5.3 5.3 0 0 1-2.316 1.716q.5.624 1.056 1.428t1.092 1.68q.54.876 1.044 1.824t.932 1.86h-4.2l-.924-1.656q-.468-.84-.96-1.632t-.972-1.5q-.48-.708-.96-1.284h-1.848v6.072h-3.744V18.004a21.225 21.225 0 0 1 2.532-.336q1.308-.096 2.34-.096Zm.216 3.192q-.408 0-.732.024l-.612.048v4.512h1.056a6.377 6.377 0 0 0 3.024-.528 1.909 1.909 0 0 0 .912-1.8 1.83 1.83 0 0 0-.924-1.74 5.714 5.714 0 0 0-2.724-.516Zm15.504 13.632q-.984-2.088-1.944-4.344t-1.824-4.464q-.864-2.208-1.6-4.224t-1.26-3.6h4.128q.48 1.44 1.044 3.108t1.156 3.324q.588 1.656 1.14 3.168t1.032 2.616q.456-1.1 1.02-2.616t1.152-3.168q.588-1.656 1.152-3.324t1.044-3.108h3.984q-.552 1.584-1.272 3.6t-1.584 4.224q-.864 2.208-1.824 4.464t-1.944 4.344Zm12.38-16.632h3.744v16.632H179.7Zm15.172 16.968a8.083 8.083 0 0 1-6.18-2.256 8.991 8.991 0 0 1-2.124-6.408 9.854 9.854 0 0 1 .648-3.684 7.938 7.938 0 0 1 1.776-2.736 7.426 7.426 0 0 1 2.688-1.692 9.7 9.7 0 0 1 3.384-.576 10.846 10.846 0 0 1 1.92.156 12.449 12.449 0 0 1 1.512.36 7.461 7.461 0 0 1 1.08.42q.432.216.624.336l-1.08 3.024a9.06 9.06 0 0 0-1.788-.7 8.533 8.533 0 0 0-2.316-.288 5.116 5.116 0 0 0-1.692.288 3.826 3.826 0 0 0-1.464.924 4.6 4.6 0 0 0-1.02 1.644 6.9 6.9 0 0 0-.384 2.448 8.738 8.738 0 0 0 .252 2.148 4.556 4.556 0 0 0 .816 1.716 3.917 3.917 0 0 0 1.476 1.14 5.253 5.253 0 0 0 2.208.42 10.061 10.061 0 0 0 1.464-.1 10.87 10.87 0 0 0 1.152-.228 6.048 6.048 0 0 0 .888-.3q.384-.168.7-.312l1.032 3a8.771 8.771 0 0 1-2.232.864 13.009 13.009 0 0 1-3.34.392Zm7.968-.336V17.764h11.232v3.144h-7.488v3.264h6.648v3.072h-6.648v4.008h8.04v3.144Z" data-name="Path 7264"/><path d="M34.429 39.692H11.748v.4c0 .776.008 1.553 0 2.329a2.719 2.719 0 0 1-2.842 2.918 17.2 17.2 0 0 1-1.884-.056 2.59 2.59 0 0 1-2.279-2.227 7.223 7.223 0 0 1-.055-.874c0-3.848-.021-7.7.006-11.545a4.972 4.972 0 0 1 2.149-4.281.706.706 0 0 1 .168-.111 1.628 1.628 0 0 0 .995-1.2c.775-2.167 1.537-4.341 2.394-6.476a6.977 6.977 0 0 1 6.595-4.4c4.046 0 8.093.023 12.139-.009a7.435 7.435 0 0 1 6.956 4.947c.774 2.144 1.519 4.3 2.293 6.442a.908.908 0 0 0 .384.46 4.914 4.914 0 0 1 2.713 4.569c.046 3.938.018 7.876.011 11.815a2.647 2.647 0 0 1-2.051 2.836 6.826 6.826 0 0 1-2.977 0 2.63 2.63 0 0 1-2.031-2.748c-.012-.8 0-1.6 0-2.4v-.393m-2.14-14.19c-.039-.129-.066-.235-.1-.338q-.738-2.061-1.478-4.121a1.665 1.665 0 0 0-1.734-1.216H17.21a1.555 1.555 0 0 0-1.743 1.216l-1.465 4.09c-.04.113-.073.229-.117.369Zm-18.41 7.094a2.127 2.127 0 1 0-2.12 2.137 2.153 2.153 0 0 0 2.12-2.137m22.662 0a2.127 2.127 0 1 0-2.118 2.139 2.152 2.152 0 0 0 2.118-2.139" data-name="Path 6615"/><path d="M43.593 4.929h-1.315a2.179 2.179 0 0 0-2.187 1.978 2.142 2.142 0 0 0 1.587 2.229 3.746 3.746 0 0 0 .9.08c.753.011 1.506.008 2.259 0a1.187 1.187 0 0 1 1.224.659 1.249 1.249 0 0 1-.223 1.321 6.707 6.707 0 0 1-5.732 2.929 6.574 6.574 0 0 1-5.786-3.075 2.348 2.348 0 0 0-2.156-1.162q-9.138.03-18.276 0a1.961 1.961 0 0 0-1.81.946 6.474 6.474 0 0 1-2.309 2.276 7.031 7.031 0 0 1-7.042.179 6.21 6.21 0 0 1-2.445-2.156 1.237 1.237 0 0 1-.168-1.269 1.12 1.12 0 0 1 1.1-.64c.809 0 1.619.019 2.427-.013A3.681 3.681 0 0 0 4.84 9a2.085 2.085 0 0 0 1.2-2.294 2.145 2.145 0 0 0-2.047-1.775c-.91-.007-1.821-.012-2.731 0A1.136 1.136 0 0 1 .106 4.28a1.222 1.222 0 0 1 .183-1.27A6.693 6.693 0 0 1 6.059.02a6.838 6.838 0 0 1 5.859 3.042c.09.129.181.257.27.387a1.78 1.78 0 0 0 1.577.8q9.307-.007 18.613 0a2 2 0 0 0 1.807-.974 6.452 6.452 0 0 1 2.188-2.2 7 7 0 0 1 6.338-.563 6.492 6.492 0 0 1 3.2 2.527 1.153 1.153 0 0 1-.263 1.711 1.14 1.14 0 0 1-.534.163c-.5.022-1.011.008-1.517.008v.009" data-name="Path 6616"/></g></svg>