<svg xmlns="http://www.w3.org/2000/svg" xml:space="preserve" id="Layer_1" x="0" y="0" version="1.1" viewBox="0 0 288.2 27.1"><style>.st0{fill-rule:evenodd;clip-rule:evenodd}</style><path id="Shape" d="M275.2 9.1c2.1-.1 4.5.8 4 3.4l-1.4 6.3h-3.1l.2-1.1c-1.6 1.7-5.9 1.6-5.2-2.2.5-2.3 2.8-3 6.3-3 .2-1.1-.5-1.3-1.6-1.3-1 .1-2 .3-3 .7l.3-2.2c1.1-.3 2.3-.5 3.5-.6zm.2 6.5c0-.3.1-.7.2-.6h-.8c-.7 0-1.5 0-1.9.6-.4.8.2 1.2.9 1.2.7-.1 1.4-.4 1.6-1.2zm6.4-9.4h3.2l-2.6 12.6h-3.1l2.5-12.6zm-14.5 0c1.6 0 3.7 2.1 3.2 4.9-.4 2.3-2.4 3.9-4.7 3.8h-2.4l-.9 3.9h-3.4l2.5-12.6h5.7zm-.1 4.4c.2-.6-.1-1.2-.7-1.4-.2-.1-.3-.1-.5-.1h-1.6l-.7 2.9h1.6c.9 0 1.7-.6 1.9-1.4zM245 9.1c2.1-.1 4.6.8 4.1 3.4l-1.4 6.3h-3.1l.2-1.1c-1.6 1.7-5.8 1.6-5.1-2.2.5-2.3 2.8-3 6.2-3 .2-1.1-.5-1.3-1.6-1.3-1 .1-2 .3-3 .7l.3-2.2c1-.4 2.2-.5 3.4-.6zm.2 6.5c0-.3.1-.7.2-.6h-.8c-.6 0-1.5 0-1.8.6-.5.8.1 1.2.8 1.2.8-.1 1.5-.4 1.6-1.2zm5.1-6.5h3.1l.5 5.4 3.1-5.4h3.2l-7.4 13.6h-3.5l2.2-4.1-1.2-9.5zm-13-2.9c1.6 0 3.7 2.1 3.1 4.9-.4 2.3-2.4 3.9-4.7 3.8h-2.4l-.9 3.9H229l2.5-12.6h5.8zm-.1 4.4c.2-.6-.1-1.2-.7-1.4-.2-.1-.3-.1-.5-.1h-1.6l-.7 2.9h1.6c.9 0 1.7-.6 1.9-1.4zm48.4-2.4V6.9h-.5v-.2h1.3v.2h-.5v1.4h-.3zm1 0V6.7h.3l.4 1.1c0 .1 0 .1.1.2 0-.1 0-.1.1-.3l.4-1.1h.3v1.6h-.2V6.8l-.5 1.4h-.3l-.5-1.4-.1 1.4z" class="st0"/><path id="Shape-2" d="M173.3 25.7c0 .4.3.8.8.9.4 0 .8-.3.9-.8 0-.4-.3-.8-.8-.9-.5 0-.9.4-.9.8zm2.1-1.3V27h-.6v-.3c-.2.3-.5.4-.8.4-.8 0-1.4-.6-1.4-1.4 0-.8.6-1.4 1.4-1.4.3 0 .6.1.8.4v-.3h.6zm19.6 1.3c0 .4.3.8.8.9.4 0 .8-.3.9-.8s-.3-.8-.8-.9c-.5 0-.9.4-.9.8zm2.2-2.4V27h-.6v-.3c-.2.3-.5.4-.8.4-.8 0-1.4-.6-1.4-1.4 0-.8.6-1.4 1.4-1.4.3 0 .6.1.8.4v-1.4h.6zm-14.6 1.5c-.4 0-.7.3-.7.6h1.4c0-.3-.3-.6-.7-.6zm0-.5c.7 0 1.3.6 1.3 1.3V25.9h-2c0 .4.4.7.8.7.3 0 .6-.1.8-.3l.3.4c-.3.3-.7.4-1.1.4-.8 0-1.4-.6-1.4-1.4-.1-.8.6-1.4 1.3-1.4zm7 1.4c0 .4.3.8.8.9.4 0 .8-.3.9-.8 0-.4-.3-.8-.8-.9-.5 0-.8.4-.9.8zm2.2-1.3V27h-.6v-.3c-.2.3-.5.4-.8.4-.8 0-1.4-.6-1.4-1.4 0-.8.6-1.4 1.4-1.4.3 0 .6.1.8.4v-.3h.6zm-5.4 1.3c0-.7.5-1.4 1.3-1.4h.1c.3 0 .7.1 1 .3l-.3.5c-.2-.2-.4-.2-.7-.2-.5 0-.8.4-.8.9 0 .4.4.8.8.8.3 0 .5-.1.7-.2l.3.5c-.3.2-.6.3-1 .3-.7 0-1.4-.5-1.4-1.3v-.2zm7.4-1.4c.1 0 .3 0 .4.1l-.2.5c-.1 0-.2-.1-.4-.1-.4 0-.6.2-.6.7V27h-.6v-2.7h.6v.3c.3-.2.5-.3.8-.3zm-15.5.3-.3.4c-.3-.1-.5-.2-.8-.2-.3 0-.5.1-.5.3 0 .2.2.2.5.3h.3c.6.1.9.3.9.8s-.4.9-1.2.9c-.4 0-.8-.1-1.2-.3l.3-.5c.3.2.6.3.9.3.4 0 .6-.1.6-.3 0-.2-.1-.2-.5-.3h-.3c-.6-.1-.9-.4-.9-.8 0-.5.4-.9 1.1-.9.4 0 .8.1 1.1.3zm7.5-.3c.1 0 .3 0 .4.1l-.2.5c-.1 0-.2-.1-.4-.1-.4 0-.6.2-.6.7V27h-.6v-2.7h.6v.3c.2-.2.5-.3.8-.3zm-5 .1v.5h-.9v1.2c0 .3.1.4.4.4.2 0 .4-.1.5-.2l.2.5c-.2.1-.5.2-.7.2-.7 0-.9-.4-.9-1v-1.2h-.5v-.5h.5v-.8h.6v.8l.8.1zm-8.6 2.6h-.6v-1.5c0-.5-.2-.7-.6-.7-.3 0-.6.3-.7.6V27h-.6v-1.5c0-.5-.2-.7-.6-.7-.3 0-.6.2-.7.6V27h-.6v-2.7h.6v.3c.2-.3.5-.4.8-.4.4 0 .7.2.9.5.2-.3.6-.5.9-.5.5 0 1 .4 1 .9v.1l.2 1.8zm11.2-25.2c-.1-.1-.1-.1-.1-.2 4.7-3.1 10.9-1.8 14 2.9s1.8 10.9-2.9 14c-3.4 2.2-7.8 2.2-11.1 0 0 0 0-.1.1-.1.4-.3.8-.7 1.1-1.1.9-1 1.6-2.2 2.1-3.4.3-.8.5-1.7.6-2.6.2-2-.1-3.9-.9-5.7-.7-1.4-1.7-2.7-2.9-3.8zm-4.7 8.3c0-3.1 1.4-6 3.9-8 .1 0 .1 0 .2.1 1.2.9 2.1 2.1 2.7 3.5.4.9.7 1.8.9 2.7.1.6.2 1.3.2 1.9-.1 3-1.4 5.8-3.8 7.7l-.1.1c-2.5-1.9-4-4.9-4-8zm-12.4-.7c.4-5.6 5.3-9.8 10.9-9.3 1.7.1 3.4.7 4.8 1.6 0 0 0 .1-.1.1-.2.2-.4.3-.5.5-2.1 2-3.3 4.7-3.3 7.6 0 .8.1 1.7.2 2.5.2.8.4 1.6.8 2.3.7 1.5 1.7 2.8 2.9 3.8 0 0 .1 0 .1.1-4.7 3.1-11 1.8-14-2.9-1.1-1.6-1.7-3.6-1.7-5.6-.1-.2-.1-.5-.1-.7z"/><path id="Union_2" d="M90.5 23.8c-.6 0-1.1-.5-1.1-1.1V16c0-.6.5-1.1 1.1-1.1h6.4c.3 0 .6.1.8.4l1.2 1.3 1.2-1.3c.2-.2.5-.4.8-.4h5.1c.9 0 1.7.2 2.5.6.2-.4.6-.6 1-.6h3.7c.8-.1 1.7.1 2.4.4.1 0 .1.1.2.2.2-.4.6-.6 1-.6h5.3c.4 0 .8.2.9.6.6-.4 1.4-.6 2.1-.6h3.2c.5 0 .9.3 1 .7.7-.5 1.5-.8 2.3-.7h3.2c.6 0 1.1.5 1.1 1.1v1.4c0 .4-.2.7-.5.9.6.6.8 1.4.8 2.2 0 2-1.3 3.2-3.6 3.2h-3.1c-.4 0-.8-.3-1-.7-.7.5-1.5.7-2.4.7H123c-.2 0-.3 0-.5-.1-.1.1-.3.1-.5.1h-5.3c-.2 0-.3 0-.5-.1-.2.1-.3.1-.5.1h-1.6c-.6 0-1.1-.5-1.1-1.1v-1.4H112.1v1.3c0 .6-.5 1.1-1.1 1.1h-1.6c-.6 0-1.1-.5-1.1-1.1V21c-.7.4-1.6.6-2.4.6h-.9v1.1c0 .6-.5 1.1-1.1 1.1h-3.1c-.3 0-.6-.1-.8-.4l-1.2-1.3-1.2 1.3c-.2.2-.5.4-.8.4h-6.3zm26.3-1.1h5.3v-1.4h-3.7V20h3.6v-1.4h-3.6v-1.2h3.7V16h-5.3v6.7zm-4-2.4c.6 0 .9.1 1.2.3.3.3.3.9.3 1.3v.8h1.6v-1.3c0-.4 0-.9-.3-1.2-.2-.3-.5-.5-.8-.6.7-.3 1.2-1 1.1-1.8 0-.6-.3-1.2-.8-1.5-.6-.3-1.3-.4-1.9-.3h-3.7v6.7h1.6v-2.4h1.7zm-11.9 2.4h3.1v-2.2h2c1.4 0 2.8-.4 2.8-2.2 0-1.9-1.4-2.2-2.7-2.2H101l-2 2.2-2-2.2h-6.4v6.7h6.3l2-2.2 2 2.1zm28.7 0h3.1c1.6 0 2.5-.7 2.5-2.1 0-.5-.1-1-.5-1.4-.5-.4-1.2-.6-1.8-.5h-.9c-.2 0-.4 0-.6-.1-.3-.1-.4-.4-.3-.7 0-.1.1-.2.2-.2.2-.1.4-.1.6-.1h2.9v-1.4h-3.2c-1.7 0-2.3 1-2.3 2 0 2.1 1.9 2 3.4 2.1.2 0 .4 0 .6.1.1.1.2.3.2.4 0 .2-.1.3-.2.4-.2.1-.4.2-.6.2h-3.1v1.3zm-6.5 0h3.1c1.6 0 2.5-.7 2.5-2.1 0-.5-.1-1-.5-1.4-.5-.4-1.2-.6-1.8-.5h-.9c-.2 0-.4 0-.6-.1-.3-.1-.4-.4-.3-.7 0-.1.1-.2.2-.2.2-.1.4-.1.6-.1h2.9v-1.4h-3.2c-1.7 0-2.3 1-2.3 2 0 2.1 1.9 2 3.4 2.1.2 0 .4 0 .6.1.1.1.2.3.2.4 0 .2-.1.3-.2.4-.2.1-.4.2-.7.2H123l.1 1.3zm-23.2-3.3 2.5-2.6v5.4l-2.5-2.8zm-7.8 2V20h3.5v-1.4h-3.5v-1.2h4l1.7 1.9-1.8 2h-3.9zm11.9-2.3v-1.7h2.1c.6 0 1 .2 1 .8 0 .6-.4.9-1 .9H104zm7.1-.2v-1.5h2c.3 0 .5 0 .8.1.2.1.3.4.3.6 0 .3-.1.5-.3.6-.2.1-.5.2-.8.1l-2 .1zm-21.4-6.5c-.4 0-.8-.3-1-.7l-.2-.5c0 .6-.5 1.1-1.1 1.1h-3.2c-.4 0-.8-.3-1-.7l-.3-.8h-1.8l-.3.8c-.2.4-.6.7-1 .7h-1.7c-.6 0-1.1-.5-1.1-1.1 0-.1 0-.3.1-.4L80 4.1c.2-.4.6-.7 1-.7h2c.4 0 .8.3 1 .7l.6 1.4v-1c0-.6.5-1.1 1.1-1.1h2.6c.4 0 .8.3 1 .6l1 2.3.9-2.2c.2-.4.6-.7 1-.7H95c.2 0 .4.1.6.2.2-.1.4-.2.6-.2h5.3c.2 0 .4.1.6.2.2-.1.4-.2.6-.2h3.7c.9-.1 1.7.1 2.5.5.1 0 .1.1.2.2.2-.4.6-.6 1-.6h1.6c.5 0 1 .4 1.1.9.8-.7 1.9-1 3-.9h1.5c.2 0 .5.1.7.2.2-.1.4-.2.7-.2h2.4c.4 0 .8.3 1 .7l.6 1.4v-1c0-.6.5-1.1 1.1-1.1h2.4c.4 0 .7.2.9.5l.8 1.3v-.7c0-.6.5-1.1 1.1-1.1h1.6c.6 0 1.1.5 1.1 1.1v6.7c0 .6-.5 1.1-1.1 1.1h-2.3c-.4 0-.7-.2-.9-.5l-1-1.6v1.1c0 .6-.5 1.1-1.1 1.1H122c-.4 0-.8-.3-1-.7l-.3-.8h-1.8l-.3.8c-.2.4-.6.7-1 .7h-1.9c-1 0-2.1-.3-2.9-.9-.1.5-.5.9-1.1.9H110c-.2 0-.3 0-.5-.1-.2.1-.3.1-.5.1h-1.6c-.6 0-1.1-.5-1.1-1.1v-1.2H105.4v1.3c0 .6-.5 1.1-1.1 1.1h-1.6c-.2 0-.4-.1-.6-.2-.2.1-.4.2-.6.2h-5.3c-.2 0-.4-.1-.6-.2-.2.1-.4.2-.6.2h-1.6c-.6 0-1.1-.5-1.1-1.1l-.2.5c-.2.4-.6.7-1 .7l-1.4-.3zm38.5-1.1h2.3V4.6h-1.6v4.7l-2.8-4.7h-2.4v6.3L121 4.6h-2.4l-2.3 5.3h-.7c-.4 0-.8-.1-1.1-.3-.3-.5-.5-1-.4-1.6 0-.5.1-1.1.5-1.5.3-.3.8-.5 1.2-.4h1.5V4.6h-1.5c-.9-.1-1.8.2-2.4.8-.6.7-.9 1.7-.9 2.6-.1.9.2 1.9.9 2.5.7.5 1.5.8 2.3.7h1.9l.6-1.5h3.3l.6 1.5h3.2v-5l2.9 5.1zm-18.2 0h1.6V4.6H110v6.7zm-7.4 0h1.6V8.8h1.7c.4-.1.8 0 1.2.3.2.4.3.9.3 1.3v.8h1.6V9.9c.1-.4 0-.9-.3-1.2-.2-.3-.5-.4-.8-.6.7-.3 1.1-1 1.1-1.8 0-.6-.3-1.2-.8-1.5-.6-.3-1.3-.4-1.9-.3h-3.7v6.8zm-6.4 0h5.3V9.9h-3.7V8.5h3.6V7.2h-3.6V6h3.7V4.6h-5.3v6.7zm-2.8 0H95V4.6h-2.7l-1.9 4.5-2.1-4.5h-2.6v6.3L83 4.6h-2.4l-2.9 6.7h1.7l.6-1.5h3.3l.6 1.5h3.2V6l2.3 5.2h1.4L93.4 6v5.3zm21.9-4.1c-.1.2-.1.5-.1.7 0 .3 0 .5.1.8h.3l.7-1.6h-.5c-.5 0-.5 0-.5.1zm3.3 1.2 1.1-2.7 1.1 2.7h-2.2zm-37.9 0 1.1-2.7 1.1 2.7h-2.2zm23.5-.9V6h2c.3 0 .5 0 .8.1.2.1.4.3.3.6 0 .3-.1.5-.3.6-.2.1-.5.2-.8.1l-2 .1z"/><path d="M46.7 18.3c-.1-.6-.3-1.3-.4-1.9-.1-.5-.2-.9-.3-1.4l-1.2-6c-.4-1.7-.7-3.5-1.1-5.2 0-.1 0-.1-.1-.1H40.2c-.3 0-.5.1-.8.2h-.1c-.3.2-.6.6-.7.9l-.7 1.7c.1.3.1.3.1.4l-.4.9c0 .1-.1.2-.1.3L37 9.3s0 .1-.1.1l-.5 1.3c0 .1-.1.1-.1.2l-.4.9c-.1.2-.2.4-.2.6l-.5 1.2c0 .1-.1.2-.1.2l-.5 1.2c-.2.5-.4 1-.6 1.4-.2.6-.5 1.2-.7 1.8v.1H37.1c.1 0 .1 0 .1-.1.1-.3.2-.5.3-.8.1-.3.2-.6.3-.8 0-.1.1-.3.1-.4 0-.1.1-.1.1-.1h4.7c.1 0 .1 0 .1.1.1.7.3 1.4.4 2h3.2c.1.1.2.1.3.1zm-4.8-5.1s0-.1 0 0h-2.7c-.1 0-.1 0-.1-.1.1-.2.1-.4.2-.6v-.2c.1-.3.3-.7.4-1v-.2l.6-1.8v-.2c.2-.5.3-.9.5-1.4v-.1.1c0 .1 0 .2.1.3V8.3c.3 1.3.6 2.7.8 4 .1.2.1.5.2.7.2.1.1.1 0 .2zM16.4 6.8c-.2.4-.3.8-.5 1.2-.1.3-.3.6-.4.9l-.6 1.4v.1l-.1.1v.1c-.1.3-.3.6-.4.9-.1.2-.2.4-.2.5-.1.3-.2.6-.4.9l-.3.6L13 15v.1l-.6 1.4c-.1.3-.3.6-.4 1-.1.2-.1.3-.2.5 0 .1-.1.2-.1.4h-4s-.1 0-.1-.1c-.3-1-.5-2-.8-3l-1.6-6c-.2-1-.4-1.8-.6-2.7-.1-.3-.2-.5-.3-.7-.1-.2-.3-.3-.4-.4-.4-.2-.9-.4-1.3-.6l-.5-.2c-.5-.2-1-.3-1.5-.4L0 4.2v-.1c0-.1.1-.2.1-.3H6.5c.9 0 1.6.6 1.7 1.4.2.8.3 1.6.5 2.4l.6 3 .2 1.2v.1c.1.3.1.5.2.8.1.3.1.7.2 1v.1l.1-.3.5-1.3c0-.1 0-.1.1-.2l.6-1.5.4-1.1c0-.1.1-.2.1-.3l.6-1.5c.1-.3.2-.6.3-.8.1-.3.2-.6.4-.9l.3-.9.3-.6.1-.3h4l-.4 1c0 .1-.1.2-.1.3 0 .1-.1.3-.2.4-.1.3-.2.6-.4.9 0-.2-.1-.1-.2.1zM23 4.5c-.2.9-.4 1.9-.6 2.8-.1.3-.1.7-.2 1-.1.7-.3 1.3-.4 2-.1.2-.1.5-.2.7-.1.5-.2 1.1-.3 1.6l-.4 1.4v.2l-.1.4-.1.4-.3 1.5c0 .2-.1.4-.1.6-.1.3-.1.6-.2 1v.2h-3.8c-.1 0 0 0 0-.1l.4-1.8c0-.1.1-.2.1-.3l.3-1.4c0-.2.1-.4.1-.6l.2-1c.1-.4.2-.9.3-1.3l.2-1.1c0-.1.1-.3.1-.4l.3-1.5c0-.2.1-.3.1-.5 0-.1.1-.3.1-.4l.3-1.5c.1-.3.1-.5.2-.8l.3-1.5v-.2h3.8c0 .1-.1.4-.1.6zm10.4 8.8c.1.9-.2 1.8-.6 2.6-.2.4-.5.7-.8 1-.3.2-.5.4-.8.6h-.1c-.2.1-.5.3-.7.4-.3.2-.7.3-1.1.3-.2.1-.4.1-.5.1-.3.1-.7.1-1 .1H25.5c-.3 0-.6-.1-.9-.1-.1 0-.2 0-.3-.1-.2 0-.3-.1-.4-.1-.4-.1-.7-.2-1.1-.4v-.1c.2-.7.3-1.5.5-2.2.1-.3.1-.6.2-.9 0-.1.1 0 .1 0 .2.1.5.2.8.3.2.1.4.1.6.2.2 0 .4.1.6.1.4.1.8.2 1.3.2h.5c.4 0 .8 0 1.1-.1.1 0 .3-.1.4-.1.2-.1.4-.2.6-.4.2-.2.3-.4.3-.7 0-.3-.2-.5-.4-.7-.2-.2-.4-.4-.7-.5-.2-.1-.3-.2-.5-.3-.1-.1-.3-.1-.4-.2-.3-.2-.6-.3-.9-.5-.4-.2-.8-.5-1.1-.8-.4-.4-.8-.9-1-1.4-.2-.5-.3-1.1-.2-1.6 0-.4.2-.9.3-1.3v-.1c.1-.3.3-.6.5-.9.1-.1.1-.2.2-.2.3-.3.5-.5.9-.8.3-.2.6-.4.9-.5.3-.2.7-.3 1.1-.4.3-.1.7-.2 1-.2.2 0 .3-.1.5-.1h1c.6 0 1.2.1 1.8.2h.1c.1.1.5.2.9.3.1 0 .1.1.2.1s.1 0 .1.1c-.1.4-.2.9-.3 1.3-.1.3-.1.5-.2.8l-.2.8c0 .1 0 0-.1 0-.3-.1-.6-.3-1-.4-.3-.1-.6-.2-.9-.2H29.9c-.3 0-.5.1-.7.1-.4.1-.7.3-.9.6-.1.1-.1.2-.2.4 0 .2 0 .5.2.7.2.2.3.4.5.5h.1c.5.3 1 .5 1.5.8.8.4 1.5.9 2 1.4.6.7.9 1.5 1 2.3z" class="st0"/></svg>